<?xml version="1.0" encoding="utf-8"?>
<!-- Generator: Adobe Illustrator 25.2.0, SVG Export Plug-In . SVG Version: 6.00 Build 0)  -->
<svg version="1.1" id="Layer_1" xmlns="http://www.w3.org/2000/svg" xmlns:xlink="http://www.w3.org/1999/xlink" x="0px" y="0px"
	 viewBox="0 0 1133.3 482.4" style="enable-background:new 0 0 1133.3 482.4;" xml:space="preserve">
<style type="text/css">
	.st0{fill:#ccc;}
</style>
<g>
	<g>
		<path class="st0" d="M316.2,272.1c-1.4-2.2-3-4.1-4.8-5.7c-1.8-1.6-3.8-2.9-5.9-3.9c4.4-1.7,8.3-3.8,11.7-6.4
			c3.4-2.6,6.2-5.6,8.6-8.9c2.3-3.3,4.1-6.9,5.3-10.9c1.2-3.9,1.8-8.1,1.8-12.5c0-5.8-1-11.1-3-16c-2-4.9-5.2-9.2-9.6-12.8
			c-4.4-3.6-10-6.4-17-8.4c-6.9-2-15.3-3-25.1-3h-9.5l-22.3,135.9h19v-50.3h8c2.4,0,4.3,0.4,5.6,1.1c1.3,0.7,2.5,2,3.5,3.7
			l22.6,39.4c2.3,4,6.1,6,11.4,6h28.5L316.2,272.1z M300.7,234.5c-0.9,2.6-2.3,4.8-4.2,6.8c-1.9,1.9-4.4,3.4-7.4,4.5
			c-3,1.1-6.7,1.6-11,1.6h-12.7v-40.3h12.7c8.1,0,14.2,1.7,18,5c3.9,3.4,5.8,8,5.8,14C302,229.1,301.6,231.9,300.7,234.5z"/>
		<path class="st0" d="M252.9,224.7l9.1-55.5c-4.1-2.9-9.2-5.2-15.4-6.9c-6.6-1.7-14.6-2.6-24-2.6h-50v135.9h54.3
			c5.3,0,10.1-0.4,14.6-1.3l11.2-68.7L252.9,224.7z M204.1,183.3h18.5c3.5,0,6.6,0.3,9.2,0.8c2.6,0.6,4.7,1.5,6.4,2.8
			c1.7,1.3,2.9,3,3.7,5.2c0.8,2.1,1.2,4.8,1.2,8.1c0,3.3-0.5,6-1.5,8.2c-1,2.2-2.5,3.9-4.5,5.1c-2,1.2-4.3,2.1-7.1,2.6
			c-2.8,0.5-5.9,0.7-9.4,0.7h-16.4V183.3z M245.8,260.4c-0.6,2.1-1.6,4-3.1,5.7c-1.5,1.7-3.6,3-6.2,4.1c-2.6,1.1-6,1.6-10.2,1.6
			h-22.2v-33.8h22c4,0,7.3,0.4,9.9,1.1s4.7,1.8,6.3,3.2c1.6,1.4,2.7,3,3.4,5c0.7,2,1,4.2,1,6.7C246.6,256.1,246.3,258.3,245.8,260.4
			z"/>
	</g>
	<g>
		<path class="st0" d="M400.2,259.8v-86.7h31.9c6,0,11.1,0.6,15.3,1.7c4.2,1.1,7.6,2.7,10.3,4.7c2.7,2,4.6,4.5,5.8,7.4
			c1.2,2.9,1.8,6.1,1.8,9.7c0,1.9-0.3,3.8-0.8,5.6c-0.6,1.8-1.4,3.5-2.6,5.1c-1.2,1.6-2.7,3-4.6,4.3c-1.9,1.3-4.1,2.4-6.7,3.4
			c5.7,1.4,9.9,3.6,12.7,6.8c2.7,3.1,4.1,7.1,4.1,12c0,3.7-0.7,7.1-2.1,10.3c-1.4,3.2-3.5,5.9-6.3,8.3c-2.8,2.4-6.2,4.2-10.2,5.5
			c-4,1.3-8.7,2-13.9,2H400.2z M420.4,209.6h10.5c2.2,0,4.2-0.2,6-0.5c1.8-0.3,3.3-0.9,4.6-1.7c1.2-0.8,2.2-1.9,2.9-3.3
			c0.7-1.4,1-3.1,1-5.2c0-2.1-0.3-3.8-0.8-5.1c-0.5-1.4-1.3-2.5-2.4-3.3c-1.1-0.8-2.4-1.4-4.1-1.8c-1.6-0.4-3.6-0.5-5.9-0.5h-11.8
			V209.6z M420.4,223.1v21.6h14.2c2.7,0,4.8-0.3,6.5-1c1.7-0.7,3-1.5,4-2.6c1-1.1,1.6-2.3,2-3.6c0.4-1.3,0.5-2.7,0.5-4.1
			c0-1.6-0.2-3-0.6-4.3c-0.4-1.3-1.1-2.3-2.1-3.2c-1-0.9-2.4-1.5-4-2c-1.7-0.5-3.8-0.7-6.3-0.7H420.4z"/>
		<path class="st0" d="M534.1,173.1v15.5h-35.6v20.2h27.3v14.9h-27.3v20.6h35.6v15.5h-55.8v-86.7H534.1z"/>
		<path class="st0" d="M624.2,216.5c0,6.3-1.1,12.1-3.2,17.3c-2.2,5.3-5.2,9.9-9.1,13.7c-3.9,3.9-8.7,6.9-14.2,9
			c-5.5,2.2-11.7,3.2-18.4,3.2h-33.7v-86.7h33.7c6.7,0,12.9,1.1,18.4,3.3c5.5,2.2,10.3,5.2,14.2,9c3.9,3.8,7,8.4,9.1,13.7
			C623.1,204.5,624.2,210.2,624.2,216.5z M603.6,216.5c0-4.3-0.6-8.2-1.7-11.6c-1.1-3.5-2.7-6.4-4.8-8.8c-2.1-2.4-4.6-4.2-7.6-5.5
			c-3-1.3-6.4-1.9-10.3-1.9h-13.4v55.8h13.4c3.8,0,7.3-0.6,10.3-1.9c3-1.3,5.6-3.1,7.6-5.5c2.1-2.4,3.7-5.3,4.8-8.8
			C603.1,224.7,603.6,220.8,603.6,216.5z"/>
		<path class="st0" d="M654,227.8v32.1h-20.1v-86.7h28.2c6.3,0,11.6,0.6,16,1.9c4.4,1.3,8,3.1,10.8,5.4c2.8,2.3,4.8,5,6.1,8.2
			c1.3,3.1,1.9,6.5,1.9,10.2c0,2.8-0.4,5.5-1.1,8c-0.8,2.5-1.9,4.8-3.4,6.9c-1.5,2.1-3.3,4-5.5,5.7c-2.2,1.7-4.7,3-7.5,4.1
			c1.3,0.7,2.6,1.5,3.8,2.5c1.2,1,2.2,2.2,3.1,3.6l18.4,30.2h-18.2c-3.4,0-5.8-1.3-7.3-3.8l-14.4-25.2c-0.6-1.1-1.4-1.9-2.2-2.4
			c-0.9-0.5-2.1-0.7-3.6-0.7H654z M654,213.9h8.1c2.7,0,5.1-0.3,7-1c1.9-0.7,3.5-1.7,4.7-2.9c1.2-1.2,2.1-2.7,2.7-4.3
			c0.6-1.6,0.8-3.4,0.8-5.3c0-3.8-1.2-6.8-3.7-8.9c-2.5-2.1-6.3-3.2-11.5-3.2H654V213.9z"/>
		<path class="st0" d="M795.6,216.5c0,6.3-1.1,12.1-3.2,17.5c-2.2,5.4-5.2,10.1-9.1,14.1s-8.7,7.1-14.2,9.4
			c-5.5,2.3-11.7,3.4-18.4,3.4c-6.7,0-12.9-1.1-18.4-3.4c-5.6-2.3-10.3-5.4-14.3-9.4c-3.9-4-7-8.7-9.2-14.1
			c-2.2-5.4-3.2-11.2-3.2-17.5c0-6.3,1.1-12.1,3.2-17.5c2.2-5.4,5.2-10.1,9.2-14c3.9-4,8.7-7.1,14.3-9.3c5.6-2.3,11.7-3.4,18.4-3.4
			c6.7,0,12.9,1.1,18.4,3.4c5.5,2.3,10.3,5.4,14.2,9.4c3.9,4,7,8.6,9.1,14C794.5,204.4,795.6,210.2,795.6,216.5z M775,216.5
			c0-4.3-0.6-8.1-1.7-11.6c-1.1-3.4-2.7-6.3-4.8-8.7c-2.1-2.4-4.6-4.2-7.6-5.5c-3-1.3-6.4-1.9-10.3-1.9c-3.9,0-7.3,0.6-10.4,1.9
			c-3,1.3-5.6,3.1-7.7,5.5c-2.1,2.4-3.7,5.3-4.8,8.7c-1.1,3.4-1.7,7.3-1.7,11.6c0,4.3,0.6,8.2,1.7,11.6c1.1,3.4,2.7,6.3,4.8,8.7
			c2.1,2.4,4.6,4.2,7.7,5.4c3,1.2,6.5,1.9,10.4,1.9c3.8,0,7.3-0.6,10.3-1.9c3-1.2,5.6-3.1,7.6-5.4c2.1-2.4,3.7-5.3,4.8-8.7
			C774.5,224.7,775,220.8,775,216.5z"/>
		<path class="st0" d="M863.5,237.4c0.5,0,1,0.1,1.4,0.3c0.5,0.2,0.9,0.5,1.4,0.9l8,8.4c-3.5,4.6-7.9,8-13.1,10.3
			c-5.3,2.3-11.5,3.5-18.7,3.5c-6.6,0-12.5-1.1-17.7-3.4c-5.2-2.2-9.6-5.3-13.3-9.3c-3.6-3.9-6.4-8.6-8.4-14
			c-1.9-5.4-2.9-11.3-2.9-17.6c0-6.5,1.1-12.4,3.3-17.8c2.2-5.4,5.3-10.1,9.3-14c4-3.9,8.8-7,14.3-9.2c5.6-2.2,11.7-3.3,18.4-3.3
			c3.3,0,6.3,0.3,9.2,0.9c2.9,0.6,5.6,1.4,8.1,2.4c2.5,1,4.8,2.2,6.9,3.6c2.1,1.4,4,3,5.6,4.7l-6.8,9.1c-0.4,0.6-1,1.1-1.5,1.5
			c-0.6,0.5-1.4,0.7-2.5,0.7c-0.7,0-1.4-0.2-2-0.5c-0.6-0.3-1.3-0.7-2-1.2c-0.7-0.5-1.5-1-2.4-1.5c-0.9-0.5-1.9-1-3-1.5
			c-1.2-0.5-2.5-0.8-4.1-1.2c-1.6-0.3-3.4-0.5-5.5-0.5c-3.7,0-7,0.6-10,1.9c-3,1.3-5.6,3.1-7.8,5.5c-2.2,2.4-3.8,5.3-5.1,8.7
			c-1.2,3.4-1.8,7.2-1.8,11.5c0,4.4,0.6,8.4,1.8,11.8c1.2,3.5,2.9,6.4,4.9,8.7c2.1,2.4,4.5,4.2,7.3,5.4c2.8,1.2,5.8,1.8,8.9,1.8
			c1.8,0,3.5-0.1,5-0.3c1.5-0.2,2.9-0.5,4.2-0.9c1.3-0.4,2.5-1,3.7-1.7c1.2-0.7,2.4-1.6,3.5-2.6c0.5-0.4,1-0.7,1.5-1
			C862.3,237.5,862.9,237.4,863.5,237.4z"/>
		<path class="st0" d="M903.6,208.2h3.2c3,0,5.1-0.9,6.4-2.8l19.5-28.3c1.1-1.5,2.3-2.6,3.7-3.2c1.4-0.6,3-0.8,5-0.8h17.5
			l-25.7,35.1c-0.9,1.3-1.9,2.3-2.9,3.2c-1,0.8-2,1.5-3,2.1c1.5,0.6,2.9,1.3,4.1,2.3c1.2,1,2.4,2.3,3.4,3.9l26.2,40.2h-18
			c-1.2,0-2.1-0.1-2.9-0.2c-0.8-0.2-1.5-0.4-2.1-0.7c-0.6-0.3-1.1-0.7-1.5-1.2c-0.4-0.5-0.9-1-1.2-1.6L915.6,226
			c-0.7-1.1-1.6-1.9-2.7-2.4c-1.1-0.5-2.6-0.7-4.4-0.7h-4.9v36.9h-20.1v-86.7h20.1V208.2z"/>
	</g>
	<g>
		<path class="st0" d="M413.2,308.6c1.7,0,3.2-0.4,4.6-1.3c1.4-0.8,2.4-2,3.2-3.3h4.6c-0.6,1.7-1.5,3.2-2.7,4.5s-2.6,2.4-4.3,3.1
			c-1.7,0.8-3.4,1.1-5.3,1.1c-1.8,0-3.4-0.3-5-1c-1.6-0.7-3-1.6-4.1-2.8c-1.2-1.2-2.1-2.6-2.8-4.1c-0.7-1.6-1-3.2-1-5
			c0-1.8,0.3-3.5,1-5c0.7-1.6,1.6-2.9,2.8-4.1c1.2-1.2,2.6-2.1,4.1-2.8c1.6-0.7,3.2-1,5-1c1.9,0,3.7,0.4,5.3,1.1
			c1.6,0.8,3.1,1.8,4.3,3.1c1.2,1.3,2.1,2.8,2.7,4.5h-4.6c-0.7-1.4-1.8-2.5-3.2-3.3c-1.4-0.8-2.9-1.3-4.6-1.3
			c-1.6,0-3.1,0.4-4.4,1.2c-1.3,0.8-2.4,1.9-3.2,3.2c-0.8,1.3-1.2,2.8-1.2,4.4c0,1.6,0.4,3.1,1.2,4.4c0.8,1.3,1.8,2.4,3.2,3.2
			C410.1,308.2,411.6,308.6,413.2,308.6z"/>
		<path class="st0" d="M429.3,312.4v-18.7h4.2v1.9c0.8-0.6,1.7-1.1,2.7-1.4c1-0.3,2.1-0.5,3.2-0.5h1.7v4.2h-1.7
			c-1.1,0-2.1,0.3-3,0.8s-1.6,1.2-2.1,2.1c-0.5,0.9-0.8,1.9-0.8,3v8.5H429.3z"/>
		<path class="st0" d="M461.3,306.6c-0.5,1.2-1.2,2.3-2.1,3.2c-0.9,0.9-1.9,1.6-3.1,2.1c-1.2,0.5-2.5,0.8-3.8,0.8
			c-1.3,0-2.6-0.2-3.8-0.7c-1.2-0.5-2.2-1.2-3.1-2.1c-0.9-0.9-1.6-1.9-2.1-3.1c-0.5-1.2-0.8-2.4-0.8-3.7c0-1.3,0.3-2.6,0.8-3.8
			c0.5-1.2,1.2-2.2,2.1-3.1c0.9-0.9,1.9-1.6,3.1-2.1c1.2-0.5,2.4-0.8,3.8-0.8c1.3,0,2.6,0.3,3.7,0.8c1.2,0.5,2.2,1.2,3.1,2.1
			c0.9,0.9,1.6,1.9,2.1,3.1c0.5,1.2,0.7,2.4,0.7,3.8c0,0.6-0.1,1.2-0.2,1.8h-4h-10.7c0.4,1.1,1.1,1.9,2,2.6c0.9,0.7,2,1,3.2,1
			c0.8,0,1.6-0.2,2.3-0.5c0.7-0.3,1.3-0.8,1.8-1.4H461.3z M452.3,297.6c-1.2,0-2.2,0.3-3.2,1c-0.9,0.7-1.6,1.5-2,2.6h10.3
			c-0.4-1-1.1-1.9-2-2.6C454.5,297.9,453.5,297.6,452.3,297.6z"/>
		<path class="st0" d="M480.2,312.4V311c-0.8,0.5-1.6,0.9-2.6,1.2c-0.9,0.3-1.9,0.5-2.9,0.5c-1.3,0-2.6-0.2-3.8-0.7
			c-1.2-0.5-2.2-1.2-3.1-2.1c-0.9-0.9-1.6-1.9-2.1-3.1c-0.5-1.2-0.8-2.4-0.8-3.7c0-1.3,0.3-2.6,0.8-3.8c0.5-1.2,1.2-2.2,2.1-3.1
			c0.9-0.9,1.9-1.6,3.1-2.1c1.2-0.5,2.4-0.8,3.8-0.8c1,0,2,0.2,2.9,0.5c0.9,0.3,1.8,0.7,2.6,1.3v-1.4h4.2v18.7H480.2z M480.2,303.1
			c0-1-0.2-1.9-0.7-2.8c-0.5-0.8-1.2-1.5-2-2c-0.8-0.5-1.7-0.7-2.8-0.7s-1.9,0.2-2.8,0.7c-0.8,0.5-1.5,1.2-2,2
			c-0.5,0.8-0.7,1.8-0.7,2.8c0,1,0.2,1.9,0.7,2.8c0.5,0.8,1.2,1.5,2,2c0.8,0.5,1.8,0.7,2.8,0.7s1.9-0.2,2.8-0.7c0.8-0.5,1.5-1.2,2-2
			C480,305,480.2,304.1,480.2,303.1z"/>
		<path class="st0" d="M490.6,305.7v-7.7h-2.7v-4.2h2.7v-4.1h4.2v4.1h5.1v4.2h-5.1v7.7c0,0.7,0.2,1.3,0.7,1.8
			c0.5,0.5,1.1,0.7,1.8,0.7h2.5v4.2h-2.5c-1.2,0-2.4-0.3-3.4-0.9c-1-0.6-1.8-1.4-2.4-2.4C490.9,308,490.6,306.9,490.6,305.7z"/>
		<path class="st0" d="M508.8,288.1c0,0.8-0.3,1.6-0.9,2.2c-0.6,0.6-1.3,0.9-2.2,0.9c-0.8,0-1.6-0.3-2.2-0.9
			c-0.6-0.6-0.9-1.3-0.9-2.2c0-0.9,0.3-1.6,0.9-2.2c0.6-0.6,1.3-0.9,2.2-0.9c0.9,0,1.6,0.3,2.2,0.9
			C508.5,286.5,508.8,287.2,508.8,288.1z M503.6,312.4v-18.7h4.2v18.7H503.6z"/>
		<path class="st0" d="M512.4,312.4v-18.7h4.2v1c0.7-0.4,1.4-0.8,2.2-1c0.8-0.2,1.6-0.4,2.5-0.4c1.6,0,3.1,0.4,4.4,1.2
			c1.3,0.8,2.4,1.9,3.2,3.2c0.8,1.3,1.2,2.8,1.2,4.5v10.1h-4.2v-10.1c0-0.9-0.2-1.6-0.6-2.3c-0.4-0.7-1-1.3-1.7-1.7
			c-0.7-0.4-1.5-0.6-2.3-0.6c-0.9,0-1.7,0.2-2.4,0.6c-0.7,0.4-1.3,1-1.7,1.7c-0.4,0.7-0.6,1.5-0.6,2.3v10.1H512.4z"/>
		<path class="st0" d="M533.7,313.2h4.2c0,1,0.2,1.9,0.7,2.7c0.5,0.8,1.1,1.5,2,2c0.8,0.5,1.7,0.7,2.7,0.7c1,0,1.9-0.2,2.7-0.7
			c0.8-0.5,1.5-1.1,2-2c0.5-0.8,0.7-1.7,0.7-2.7V311c-0.8,0.5-1.6,0.9-2.6,1.2c-0.9,0.3-1.9,0.5-2.9,0.5c-1.3,0-2.6-0.2-3.8-0.7
			c-1.2-0.5-2.2-1.2-3.1-2.1c-0.9-0.9-1.6-1.9-2.1-3.1c-0.5-1.2-0.8-2.4-0.8-3.7c0-1.3,0.3-2.6,0.8-3.8c0.5-1.2,1.2-2.2,2.1-3.1
			c0.9-0.9,1.9-1.6,3.1-2.1c1.2-0.5,2.4-0.8,3.8-0.8c1,0,2,0.2,2.9,0.5c0.9,0.3,1.8,0.7,2.6,1.3v-1.4h4.2v19.4
			c0,1.3-0.2,2.6-0.7,3.7c-0.5,1.2-1.2,2.2-2.1,3c-0.9,0.9-1.9,1.6-3,2.1c-1.2,0.5-2.4,0.7-3.7,0.7c-1.3,0-2.5-0.2-3.7-0.7
			c-1.2-0.5-2.2-1.2-3-2.1c-0.9-0.9-1.6-1.9-2.1-3C534,315.7,533.7,314.5,533.7,313.2z M548.7,303.1c0-1-0.2-1.9-0.7-2.8
			c-0.5-0.8-1.2-1.5-2-2c-0.8-0.5-1.7-0.7-2.8-0.7s-1.9,0.2-2.8,0.7c-0.8,0.5-1.5,1.2-2,2c-0.5,0.8-0.7,1.8-0.7,2.8
			c0,1,0.2,1.9,0.7,2.8c0.5,0.8,1.2,1.5,2,2c0.8,0.5,1.8,0.7,2.8,0.7s1.9-0.2,2.8-0.7c0.8-0.5,1.5-1.2,2-2
			C548.4,305,548.7,304.1,548.7,303.1z"/>
		<path class="st0" d="M567.4,305.2h4.3c0,0.6,0.3,1.2,0.8,1.7c0.5,0.5,1.2,0.9,2.1,1.2c0.9,0.3,1.8,0.5,2.9,0.5c1,0,2-0.2,2.9-0.5
			c0.9-0.3,1.6-0.7,2.1-1.2c0.5-0.5,0.8-1.1,0.8-1.7c0-0.8-0.4-1.5-1.2-2.1c-0.8-0.6-1.8-1-3-1.2l-3.3-0.5c-1.4-0.2-2.7-0.7-3.8-1.4
			c-1.1-0.7-2-1.5-2.7-2.5c-0.7-1-1-2.1-1-3.3c0-1.4,0.4-2.6,1.3-3.7c0.8-1.1,2-2,3.4-2.7c1.4-0.7,3-1,4.7-1c1.7,0,3.3,0.3,4.7,1
			c1.4,0.7,2.5,1.5,3.4,2.7c0.8,1.1,1.2,2.3,1.2,3.7h-4.3c0-0.6-0.2-1.1-0.7-1.6c-0.5-0.5-1.1-0.9-1.8-1.1c-0.8-0.3-1.6-0.4-2.5-0.4
			c-0.9,0-1.8,0.1-2.5,0.4c-0.8,0.3-1.4,0.7-1.8,1.1c-0.5,0.5-0.7,1-0.7,1.6c0,0.7,0.4,1.4,1.1,1.9c0.7,0.6,1.6,0.9,2.7,1.1l3.3,0.5
			c1.5,0.2,2.9,0.7,4.1,1.4c1.2,0.7,2.1,1.6,2.8,2.6c0.7,1,1.1,2.2,1.1,3.4c0,1.4-0.5,2.7-1.4,3.8c-0.9,1.1-2.1,2.1-3.6,2.7
			c-1.5,0.7-3.2,1-5,1c-1.8,0-3.5-0.3-5-1c-1.5-0.7-2.7-1.6-3.6-2.7C567.8,307.8,567.4,306.6,567.4,305.2z"/>
		<path class="st0" d="M592.3,305.7v-7.7h-2.7v-4.2h2.7v-4.1h4.2v4.1h5.1v4.2h-5.1v7.7c0,0.7,0.2,1.3,0.7,1.8
			c0.5,0.5,1.1,0.7,1.8,0.7h2.5v4.2h-2.5c-1.2,0-2.4-0.3-3.4-0.9c-1-0.6-1.8-1.4-2.4-2.4C592.6,308,592.3,306.9,592.3,305.7z"/>
		<path class="st0" d="M605.3,312.4v-18.7h4.2v1.9c0.8-0.6,1.7-1.1,2.7-1.4c1-0.3,2.1-0.5,3.2-0.5h1.7v4.2h-1.7
			c-1.1,0-2.1,0.3-3,0.8c-0.9,0.5-1.6,1.2-2.1,2.1c-0.5,0.9-0.8,1.9-0.8,3v8.5H605.3z"/>
		<path class="st0" d="M637.3,306.6c-0.5,1.2-1.2,2.3-2.1,3.2c-0.9,0.9-1.9,1.6-3.1,2.1s-2.5,0.8-3.8,0.8c-1.3,0-2.6-0.2-3.8-0.7
			c-1.2-0.5-2.2-1.2-3.1-2.1c-0.9-0.9-1.6-1.9-2.1-3.1c-0.5-1.2-0.8-2.4-0.8-3.7c0-1.3,0.3-2.6,0.8-3.8c0.5-1.2,1.2-2.2,2.1-3.1
			c0.9-0.9,1.9-1.6,3.1-2.1c1.2-0.5,2.4-0.8,3.8-0.8c1.3,0,2.6,0.3,3.7,0.8c1.2,0.5,2.2,1.2,3.1,2.1c0.9,0.9,1.6,1.9,2.1,3.1
			c0.5,1.2,0.7,2.4,0.7,3.8c0,0.6-0.1,1.2-0.2,1.8h-4h-10.7c0.4,1.1,1.1,1.9,2,2.6c0.9,0.7,2,1,3.2,1c0.8,0,1.6-0.2,2.3-0.5
			c0.7-0.3,1.3-0.8,1.8-1.4H637.3z M628.3,297.6c-1.2,0-2.2,0.3-3.2,1c-0.9,0.7-1.6,1.5-2,2.6h10.3c-0.4-1-1.1-1.9-2-2.6
			C630.5,297.9,629.4,297.6,628.3,297.6z"/>
		<path class="st0" d="M656.2,312.4V311c-0.8,0.5-1.6,0.9-2.6,1.2c-0.9,0.3-1.9,0.5-2.9,0.5c-1.3,0-2.6-0.2-3.8-0.7
			c-1.2-0.5-2.2-1.2-3.1-2.1c-0.9-0.9-1.6-1.9-2.1-3.1c-0.5-1.2-0.8-2.4-0.8-3.7c0-1.3,0.3-2.6,0.8-3.8c0.5-1.2,1.2-2.2,2.1-3.1
			c0.9-0.9,1.9-1.6,3.1-2.1c1.2-0.5,2.4-0.8,3.8-0.8c1,0,2,0.2,2.9,0.5c0.9,0.3,1.8,0.7,2.6,1.3v-1.4h4.2v18.7H656.2z M656.2,303.1
			c0-1-0.2-1.9-0.7-2.8c-0.5-0.8-1.2-1.5-2-2c-0.8-0.5-1.7-0.7-2.8-0.7s-1.9,0.2-2.8,0.7c-0.8,0.5-1.5,1.2-2,2
			c-0.5,0.8-0.7,1.8-0.7,2.8c0,1,0.2,1.9,0.7,2.8c0.5,0.8,1.2,1.5,2,2c0.8,0.5,1.8,0.7,2.8,0.7s1.9-0.2,2.8-0.7c0.8-0.5,1.5-1.2,2-2
			C655.9,305,656.2,304.1,656.2,303.1z"/>
		<path class="st0" d="M664.9,312.4v-18.7h4.2v0.7c1.2-0.7,2.6-1.1,4-1.1c1.2,0,2.3,0.2,3.4,0.7c1.1,0.5,2,1.2,2.7,2
			c0.8-0.8,1.7-1.5,2.7-2c1.1-0.5,2.2-0.7,3.4-0.7c1.5,0,2.9,0.4,4.1,1.1c1.2,0.7,2.2,1.7,3,3c0.7,1.2,1.1,2.6,1.1,4.1v10.8h-4.2
			v-10.8c0-0.7-0.2-1.4-0.5-2s-0.8-1.1-1.5-1.4c-0.6-0.4-1.3-0.5-2-0.5c-0.7,0-1.4,0.2-2,0.5c-0.6,0.4-1.1,0.8-1.4,1.4
			c-0.4,0.6-0.5,1.3-0.5,2v10.8h-4.2v-10.8c0-0.7-0.2-1.4-0.5-2c-0.4-0.6-0.9-1.1-1.5-1.4c-0.6-0.4-1.3-0.5-2-0.5
			c-0.7,0-1.4,0.2-2,0.5c-0.6,0.4-1.1,0.8-1.4,1.4s-0.5,1.3-0.5,2v10.8H664.9z"/>
		<path class="st0" d="M702.9,288.1c0,0.8-0.3,1.6-0.9,2.2c-0.6,0.6-1.3,0.9-2.2,0.9c-0.8,0-1.6-0.3-2.2-0.9
			c-0.6-0.6-0.9-1.3-0.9-2.2c0-0.9,0.3-1.6,0.9-2.2c0.6-0.6,1.3-0.9,2.2-0.9c0.9,0,1.6,0.3,2.2,0.9
			C702.6,286.5,702.9,287.2,702.9,288.1z M697.7,312.4v-18.7h4.2v18.7H697.7z"/>
		<path class="st0" d="M706.5,312.4v-18.7h4.2v1c0.7-0.4,1.4-0.8,2.2-1c0.8-0.2,1.6-0.4,2.5-0.4c1.6,0,3.1,0.4,4.4,1.2
			c1.3,0.8,2.4,1.9,3.2,3.2c0.8,1.3,1.2,2.8,1.2,4.5v10.1H720v-10.1c0-0.9-0.2-1.6-0.6-2.3c-0.4-0.7-1-1.3-1.7-1.7
			c-0.7-0.4-1.5-0.6-2.3-0.6c-0.9,0-1.7,0.2-2.4,0.6c-0.7,0.4-1.3,1-1.7,1.7c-0.4,0.7-0.6,1.5-0.6,2.3v10.1H706.5z"/>
		<path class="st0" d="M727.8,313.2h4.2c0,1,0.2,1.9,0.7,2.7c0.5,0.8,1.1,1.5,2,2c0.8,0.5,1.7,0.7,2.7,0.7c1,0,1.9-0.2,2.7-0.7
			c0.8-0.5,1.5-1.1,2-2c0.5-0.8,0.7-1.7,0.7-2.7V311c-0.8,0.5-1.6,0.9-2.6,1.2c-0.9,0.3-1.9,0.5-2.9,0.5c-1.3,0-2.6-0.2-3.8-0.7
			c-1.2-0.5-2.2-1.2-3.1-2.1c-0.9-0.9-1.6-1.9-2.1-3.1c-0.5-1.2-0.8-2.4-0.8-3.7c0-1.3,0.3-2.6,0.8-3.8c0.5-1.2,1.2-2.2,2.1-3.1
			c0.9-0.9,1.9-1.6,3.1-2.1c1.2-0.5,2.4-0.8,3.8-0.8c1,0,2,0.2,2.9,0.5c0.9,0.3,1.8,0.7,2.6,1.3v-1.4h4.2v19.4
			c0,1.3-0.2,2.6-0.7,3.7c-0.5,1.2-1.2,2.2-2.1,3c-0.9,0.9-1.9,1.6-3,2.1c-1.2,0.5-2.4,0.7-3.7,0.7c-1.3,0-2.5-0.2-3.7-0.7
			c-1.2-0.5-2.2-1.2-3-2.1c-0.9-0.9-1.6-1.9-2.1-3C728,315.7,727.8,314.5,727.8,313.2z M742.7,303.1c0-1-0.2-1.9-0.7-2.8
			c-0.5-0.8-1.2-1.5-2-2c-0.8-0.5-1.7-0.7-2.8-0.7s-1.9,0.2-2.8,0.7c-0.8,0.5-1.5,1.2-2,2c-0.5,0.8-0.7,1.8-0.7,2.8
			c0,1,0.2,1.9,0.7,2.8c0.5,0.8,1.2,1.5,2,2c0.8,0.5,1.8,0.7,2.8,0.7s1.9-0.2,2.8-0.7c0.8-0.5,1.5-1.2,2-2
			C742.5,305,742.7,304.1,742.7,303.1z"/>
		<path class="st0" d="M774.5,308.6c1.7,0,3.2-0.4,4.6-1.3c1.4-0.8,2.4-2,3.2-3.3h4.6c-0.6,1.7-1.5,3.2-2.7,4.5
			c-1.2,1.3-2.6,2.4-4.3,3.1c-1.7,0.8-3.4,1.1-5.3,1.1c-1.8,0-3.4-0.3-5-1c-1.6-0.7-3-1.6-4.1-2.8c-1.2-1.2-2.1-2.6-2.8-4.1
			c-0.7-1.6-1-3.2-1-5c0-1.8,0.3-3.5,1-5s1.6-2.9,2.8-4.1c1.2-1.2,2.6-2.1,4.1-2.8s3.2-1,5-1c1.9,0,3.7,0.4,5.3,1.1
			c1.6,0.8,3.1,1.8,4.3,3.1c1.2,1.3,2.1,2.8,2.7,4.5h-4.6c-0.7-1.4-1.8-2.5-3.2-3.3c-1.4-0.8-2.9-1.3-4.6-1.3
			c-1.6,0-3.1,0.4-4.4,1.2c-1.3,0.8-2.4,1.9-3.2,3.2c-0.8,1.3-1.2,2.8-1.2,4.4c0,1.6,0.4,3.1,1.2,4.4c0.8,1.3,1.8,2.4,3.2,3.2
			C771.5,308.2,772.9,308.6,774.5,308.6z"/>
		<path class="st0" d="M790.6,312.4v-26.5h4.2v8.9c0.7-0.4,1.4-0.8,2.2-1c0.8-0.2,1.6-0.4,2.5-0.4c1.6,0,3.1,0.4,4.4,1.2
			c1.3,0.8,2.4,1.9,3.2,3.2c0.8,1.3,1.2,2.8,1.2,4.5v10.1h-4.2v-10.1c0-0.9-0.2-1.6-0.6-2.3c-0.4-0.7-1-1.3-1.7-1.7
			c-0.7-0.4-1.5-0.6-2.3-0.6c-0.9,0-1.7,0.2-2.4,0.6c-0.7,0.4-1.3,1-1.7,1.7c-0.4,0.7-0.6,1.5-0.6,2.3v10.1H790.6z"/>
		<path class="st0" d="M826.9,312.4V311c-0.8,0.5-1.6,0.9-2.6,1.2c-0.9,0.3-1.9,0.5-2.9,0.5c-1.3,0-2.6-0.2-3.8-0.7
			c-1.2-0.5-2.2-1.2-3.1-2.1c-0.9-0.9-1.6-1.9-2.1-3.1c-0.5-1.2-0.8-2.4-0.8-3.7c0-1.3,0.3-2.6,0.8-3.8c0.5-1.2,1.2-2.2,2.1-3.1
			c0.9-0.9,1.9-1.6,3.1-2.1c1.2-0.5,2.4-0.8,3.8-0.8c1,0,2,0.2,2.9,0.5c0.9,0.3,1.8,0.7,2.6,1.3v-1.4h4.2v18.7H826.9z M826.9,303.1
			c0-1-0.2-1.9-0.7-2.8c-0.5-0.8-1.2-1.5-2-2c-0.8-0.5-1.7-0.7-2.8-0.7s-1.9,0.2-2.8,0.7c-0.8,0.5-1.5,1.2-2,2
			c-0.5,0.8-0.7,1.8-0.7,2.8c0,1,0.2,1.9,0.7,2.8c0.5,0.8,1.2,1.5,2,2c0.8,0.5,1.8,0.7,2.8,0.7s1.9-0.2,2.8-0.7c0.8-0.5,1.5-1.2,2-2
			C826.7,305,826.9,304.1,826.9,303.1z"/>
		<path class="st0" d="M835.6,312.4v-18.7h4.2v0.7c1.2-0.7,2.6-1.1,4-1.1c1.2,0,2.3,0.2,3.4,0.7c1.1,0.5,2,1.2,2.7,2
			c0.8-0.8,1.7-1.5,2.7-2c1.1-0.5,2.2-0.7,3.4-0.7c1.5,0,2.9,0.4,4.1,1.1c1.2,0.7,2.2,1.7,3,3c0.7,1.2,1.1,2.6,1.1,4.1v10.8h-4.2
			v-10.8c0-0.7-0.2-1.4-0.5-2s-0.8-1.1-1.5-1.4c-0.6-0.4-1.3-0.5-2-0.5c-0.7,0-1.4,0.2-2,0.5c-0.6,0.4-1.1,0.8-1.4,1.4
			c-0.4,0.6-0.5,1.3-0.5,2v10.8h-4.2v-10.8c0-0.7-0.2-1.4-0.5-2c-0.4-0.6-0.9-1.1-1.5-1.4c-0.6-0.4-1.3-0.5-2-0.5
			c-0.7,0-1.4,0.2-2,0.5c-0.6,0.4-1.1,0.8-1.4,1.4s-0.5,1.3-0.5,2v10.8H835.6z"/>
		<path class="st0" d="M868.4,322.4v-28.6h4.2v1.4c0.8-0.5,1.6-1,2.6-1.3c0.9-0.3,1.9-0.5,2.9-0.5c1.3,0,2.6,0.3,3.7,0.8
			c1.2,0.5,2.2,1.2,3.1,2.1c0.9,0.9,1.6,1.9,2.1,3.1c0.5,1.2,0.8,2.4,0.8,3.8c0,1.3-0.3,2.6-0.8,3.7c-0.5,1.2-1.2,2.2-2.1,3.1
			c-0.9,0.9-1.9,1.6-3.1,2.1c-1.2,0.5-2.4,0.7-3.7,0.7c-1,0-2-0.2-2.9-0.5c-0.9-0.3-1.8-0.7-2.6-1.2v11.3H868.4z M883.6,303.1
			c0-1-0.2-1.9-0.7-2.8c-0.5-0.8-1.2-1.5-2-2c-0.8-0.5-1.7-0.7-2.7-0.7c-1,0-1.9,0.2-2.8,0.7c-0.8,0.5-1.5,1.2-2,2
			c-0.5,0.8-0.7,1.8-0.7,2.8c0,1,0.2,1.9,0.7,2.8c0.5,0.8,1.2,1.5,2,2c0.8,0.5,1.8,0.7,2.8,0.7c1,0,1.9-0.2,2.7-0.7
			c0.8-0.5,1.5-1.2,2-2C883.3,305,883.6,304.1,883.6,303.1z"/>
		<path class="st0" d="M896.7,288.1c0,0.8-0.3,1.6-0.9,2.2c-0.6,0.6-1.3,0.9-2.2,0.9c-0.8,0-1.6-0.3-2.2-0.9
			c-0.6-0.6-0.9-1.3-0.9-2.2c0-0.9,0.3-1.6,0.9-2.2c0.6-0.6,1.3-0.9,2.2-0.9c0.9,0,1.6,0.3,2.2,0.9
			C896.4,286.5,896.7,287.2,896.7,288.1z M891.5,312.4v-18.7h4.2v18.7H891.5z"/>
		<path class="st0" d="M918.9,303.1c0,1.3-0.2,2.6-0.7,3.7c-0.5,1.2-1.2,2.2-2.1,3.1c-0.9,0.9-1.9,1.6-3.1,2.1
			c-1.2,0.5-2.4,0.7-3.7,0.7c-1.3,0-2.6-0.2-3.8-0.7c-1.2-0.5-2.2-1.2-3.1-2.1c-0.9-0.9-1.6-1.9-2.1-3.1c-0.5-1.2-0.8-2.4-0.8-3.7
			c0-1.3,0.3-2.6,0.8-3.8c0.5-1.2,1.2-2.2,2.1-3.1c0.9-0.9,1.9-1.6,3.1-2.1c1.2-0.5,2.4-0.8,3.8-0.8c1.3,0,2.6,0.3,3.7,0.8
			c1.2,0.5,2.2,1.2,3.1,2.1c0.9,0.9,1.6,1.9,2.1,3.1C918.6,300.5,918.9,301.7,918.9,303.1z M914.7,303.1c0-1-0.2-1.9-0.7-2.8
			c-0.5-0.8-1.2-1.5-2-2c-0.8-0.5-1.7-0.7-2.8-0.7s-1.9,0.2-2.8,0.7c-0.8,0.5-1.5,1.2-2,2c-0.5,0.8-0.7,1.8-0.7,2.8
			c0,1,0.2,1.9,0.7,2.8c0.5,0.8,1.2,1.5,2,2c0.8,0.5,1.8,0.7,2.8,0.7s1.9-0.2,2.8-0.7c0.8-0.5,1.5-1.2,2-2
			C914.4,305,914.7,304.1,914.7,303.1z"/>
		<path class="st0" d="M922.6,312.4v-18.7h4.2v1c0.7-0.4,1.4-0.8,2.2-1c0.8-0.2,1.6-0.4,2.5-0.4c1.6,0,3.1,0.4,4.4,1.2
			c1.3,0.8,2.4,1.9,3.2,3.2c0.8,1.3,1.2,2.8,1.2,4.5v10.1h-4.2v-10.1c0-0.9-0.2-1.6-0.6-2.3c-0.4-0.7-1-1.3-1.7-1.7
			c-0.7-0.4-1.5-0.6-2.3-0.6c-0.9,0-1.7,0.2-2.4,0.6c-0.7,0.4-1.3,1-1.7,1.7c-0.4,0.7-0.6,1.5-0.6,2.3v10.1H922.6z"/>
		<path class="st0" d="M943.8,306.9h4.3c0,0.5,0.4,1,1.2,1.3c0.8,0.4,1.8,0.5,3,0.5c1.2,0,2.2-0.2,3-0.5c0.8-0.4,1.2-0.8,1.2-1.3
			c0-0.4-0.3-0.8-0.8-1.1c-0.6-0.3-1.3-0.6-2.1-0.7l-2.7-0.4c-1.3-0.2-2.5-0.5-3.5-1.1c-1-0.6-1.9-1.2-2.5-2
			c-0.6-0.8-0.9-1.7-0.9-2.7h4.3c0,0.4,0.3,0.7,0.8,1c0.5,0.3,1.2,0.5,2,0.6l2.7,0.4c1.3,0.2,2.5,0.6,3.6,1.1
			c1.1,0.6,1.9,1.3,2.5,2.1c0.6,0.8,0.9,1.7,0.9,2.7c0,1.1-0.4,2.1-1.2,3c-0.8,0.9-1.8,1.6-3.1,2.2c-1.3,0.5-2.7,0.8-4.3,0.8
			c-1.6,0-3-0.3-4.3-0.8c-1.3-0.5-2.3-1.3-3.1-2.2C944.2,309,943.8,308,943.8,306.9z M960.7,299h-4.3c0-0.5-0.4-0.9-1.2-1.2
			c-0.8-0.3-1.7-0.5-2.8-0.5s-2,0.2-2.8,0.5c-0.8,0.3-1.2,0.7-1.2,1.2h-4.3c0-1.1,0.4-2.1,1.1-2.9c0.7-0.9,1.7-1.6,3-2.1
			c1.3-0.5,2.6-0.8,4.2-0.8c1.5,0,2.9,0.3,4.2,0.8c1.3,0.5,2.3,1.2,3,2.1C960.3,297,960.7,298,960.7,299z"/>
	</g>
</g>
</svg>
